<svg width="101.977px" height="101.977px" viewBox="-4.57 0 101.977 101.977" xmlns="http://www.w3.org/2000/svg">
  <path id="brake_disks" data-name="brake disks" d="M467.554,786.732a5.09,5.09,0,1,0,5.087,5.089A5.09,5.09,0,0,0,467.554,786.732Zm0,6.179a1.089,1.089,0,1,1,1.089-1.09A1.095,1.095,0,0,1,467.554,792.911Zm24.558-33.287a5.09,5.09,0,1,0,5.09,5.092A5.09,5.09,0,0,0,492.112,759.624Zm0,6.18a1.09,1.09,0,1,1,1.089-1.088A1.095,1.095,0,0,1,492.112,765.8Zm-24.558,4a5.09,5.09,0,1,0-5.09-5.088A5.09,5.09,0,0,0,467.554,769.8Zm0-6.179a1.091,1.091,0,0,1,1.089,1.091h0a1.089,1.089,0,1,1-1.087-1.091Zm24.558,23.107a5.09,5.09,0,1,0,5.09,5.089A5.092,5.092,0,0,0,492.112,786.732Zm0,6.179a1.089,1.089,0,1,1,1.089-1.09A1.094,1.094,0,0,1,492.112,792.911Zm-.034-14.644a12.245,12.245,0,1,0-12.244,12.244A12.245,12.245,0,0,0,492.078,778.267Zm-12.244,8.245a8.244,8.244,0,1,1,8.243-8.245A8.257,8.257,0,0,1,479.834,786.512Zm29.659-43.958L506.985,730.6a2,2,0,0,0-1.014-1.354,55.56,55.56,0,0,0-50.712-.8,1.993,1.993,0,0,0-1.071,1.383l-2.4,11.452a46.418,46.418,0,1,0,57.708,1.272ZM457.9,731.615a51.582,51.582,0,0,1,45.364.726l1.406,6.706a46.213,46.213,0,0,0-8.505-4.251,2,2,0,1,0-1.408,3.745h0a42.338,42.338,0,0,1,9.7,5.174l-3.786,3.327a37.52,37.52,0,0,0-39.861-1.128l-3.839-3.377a42.318,42.318,0,0,1,9.156-4.428,2,2,0,1,0-1.293-3.784,46.193,46.193,0,0,0-8.29,3.783Zm51.931,76.65a42.533,42.533,0,0,1-11.669,8.272l6.342-15.563a2,2,0,1,0-3.7-1.51l-7.792,19.123,0,.01a42.441,42.441,0,0,1-43.168-10.332q-1.494-1.494-2.834-3.133l14.089,2.252a2.044,2.044,0,0,0,.32.025,2,2,0,0,0,.312-3.974l-17.58-2.813a2.008,2.008,0,0,0-.378-.021,42.444,42.444,0,0,1-3.891-36.6l6.2,15.074a2,2,0,1,0,3.7-1.521l-7.681-18.682a42.63,42.63,0,0,1,11.524-13.951l5.657,4.975a2,2,0,0,0,2.407.176,33.518,33.518,0,0,1,37.944,1.124,2.005,2.005,0,0,0,2.5-.112l5.514-4.848a42.363,42.363,0,0,1,14,24.842l-11.748-9.641a2,2,0,1,0-2.537,3.091l14.868,12.2c.018.51.029,1.022.029,1.537A42.286,42.286,0,0,1,509.831,808.265Zm-29.995-58.653a28.655,28.655,0,1,0,28.651,28.655A28.659,28.659,0,0,0,479.836,749.612Zm0,53.308a24.654,24.654,0,1,1,24.651-24.653A24.688,24.688,0,0,1,479.836,802.92Z" transform="translate(-433.409 -722.714)" fill="#3b3859"/>
</svg>
