<svg width="108.321px" height="108.321px" viewBox="0 -6.41 108.321 108.321" xmlns="http://www.w3.org/2000/svg">
  <path id="Path_30" data-name="Path 30" d="M221.758,576.683a2,2,0,0,0-2.827,0l-3.722,3.72-3.72-3.72a2,2,0,0,0-2.829,2.829l3.721,3.719-3.721,3.721a2,2,0,0,0,2.829,2.828l3.72-3.72,3.722,3.72a2,2,0,1,0,2.827-2.828l-3.72-3.721,3.72-3.719A2,2,0,0,0,221.758,576.683Zm10.962-14.335-3.325,3.323a2,2,0,0,0,2.829,2.829l3.325-3.325a2,2,0,1,0-2.829-2.827Zm10.246-21.7a3.087,3.087,0,1,0,4.365,0A3.085,3.085,0,0,0,242.966,540.645Zm10.715,10.714a3.087,3.087,0,1,0,4.365,0A3.087,3.087,0,0,0,253.681,551.359Zm0-10.714a3.087,3.087,0,1,0,4.365,0A3.085,3.085,0,0,0,253.681,540.645Zm-10.715,10.714a3.087,3.087,0,1,0,4.365,0A3.087,3.087,0,0,0,242.966,551.359Zm23.754-20.017a23.607,23.607,0,0,0-33.387,0l-16.23,16.23-5.465-5.464a2.012,2.012,0,0,1,0-2.827l13.149-13.146a6.018,6.018,0,0,0,0-8.487l-4.562-4.562a6.01,6.01,0,0,0-8.487,0l-25.486,25.484a2,2,0,1,0,2.829,2.829l25.486-25.488a2.01,2.01,0,0,1,2.829,0l4.562,4.562a2.01,2.01,0,0,1,0,2.829L208.809,536.45a6.013,6.013,0,0,0,0,8.487l5.464,5.463-16.262,16.263c-.05.051-.1.1-.141.157a23.6,23.6,0,0,0,16.965,40.011h.008a23.584,23.584,0,0,0,23.588-23.6q0-.805-.055-1.6l10.049-10.05q.8.052,1.609.053a23.6,23.6,0,0,0,16.684-40.288ZM263.891,561.9a19.515,19.515,0,0,1-13.855,5.732,20.218,20.218,0,0,1-2.146-.116,1.986,1.986,0,0,0-1.63.573l-11.368,11.368a1.989,1.989,0,0,0-.574,1.628,20.591,20.591,0,0,1,.115,2.148,19.6,19.6,0,1,1-33.573-13.746c.039-.04.076-.081.111-.124l17.145-17.145a1.963,1.963,0,0,0,.467-.337,2,2,0,0,0,.336-.466l17.243-17.243A19.607,19.607,0,1,1,263.891,561.9Zm-91.946-9.023-6.047,6.047a2,2,0,0,0,2.829,2.828l6.046-6.046a2,2,0,0,0-2.828-2.829Zm5.713-5.712-.886.886a2,2,0,0,0,2.829,2.829l.886-.886a2,2,0,0,0-2.829-2.829Z" transform="translate(-165.312 -511.334)" fill="#3b3859"/>
</svg>
