<svg width="111.736px" height="111.736px" viewBox="0 -7.94 111.736 111.736" xmlns="http://www.w3.org/2000/svg">
  <path id="Path_26" data-name="Path 26" d="M794.06,388.387h-3.871l2.493-10.085a2,2,0,0,0-3.885-.959l-.754,3.053c-5.4-3.668-21.359-15.773-31.274-35.862-.013-.027-.033-.048-.046-.074l-14.094-29.274,2.826-5.853a2,2,0,1,0-3.6-1.739l-1.443,2.988L734.2,297.669a2,2,0,0,0-3.6,1.735l7.6,15.782-14.716,30.472a96.141,96.141,0,0,1-20.582,26.656,95.157,95.157,0,0,1-8.557,6.987c-.59.426-1.109.786-1.561,1.094l-.754-3.052a2,2,0,1,0-3.882.959l2.492,10.085h-4.305a2,2,0,0,0,0,4H794.06a2,2,0,0,0,0-4Zm-99.31,0-.957-3.87a98.672,98.672,0,0,0,18.756-16.241l-9.713,20.111Zm38.133,0a93.561,93.561,0,0,0,6.877-18.326,93.37,93.37,0,0,0,6.875,18.326Zm18.246,0c-.254-.477-.6-1.138-1.018-1.985-2.732-5.484-8.193-18.162-8.351-30.472v-3.415a2,2,0,0,0-2-2h0a2,2,0,0,0-2,2s0,0,0,3.361c0,.017,0,.033,0,.05-.106,8.177-2.553,16.559-5,22.853-1.225,3.156-2.444,5.787-3.354,7.623-.42.848-.765,1.509-1.019,1.985h-21.11l19.809-41.018c.182-.355.369-.7.547-1.063a1.964,1.964,0,0,0,.113-.3L740.4,319.789l33.03,68.6Zm34.939,0h-8.2l-9.777-20.3a98.789,98.789,0,0,0,18.929,16.434Zm-40.035-84.872a2,2,0,0,0,2.668-.937l1.527-3.175a2,2,0,1,0-3.605-1.732l-1.525,3.175A2,2,0,0,0,746.033,303.515Z" transform="translate(-684.324 -296.536)" fill="#3b3859"/>
</svg>
