<svg width="104.365px" height="104.365px" viewBox="-15.02 0 104.365 104.365" xmlns="http://www.w3.org/2000/svg">
  <path id="Path_31" data-name="Path 31" d="M475.878,567.619a2,2,0,0,0-2.142,1.847l-.518,7a2,2,0,0,0,1.846,2.142c.05,0,.1.006.149.006a2,2,0,0,0,1.994-1.852l.518-7A2,2,0,0,0,475.878,567.619Zm.2-7.1a2,2,0,0,0-2.127,1.862l-.162,2.414a2,2,0,0,0,1.864,2.129c.045,0,.089,0,.134,0a2,2,0,0,0,1.993-1.867l.161-2.414A2,2,0,0,0,476.074,560.518Zm8.5,10.3a2,2,0,0,0-1.946,2.053l.211,7.944a2,2,0,0,0,2,1.947h.05a2,2,0,0,0,1.947-2.053l-.211-7.944A2,2,0,0,0,484.578,570.823ZM449.729,582.28a5.6,5.6,0,1,0-5.6-5.6A5.6,5.6,0,0,0,449.729,582.28Zm0-7.2a1.6,1.6,0,1,1-1.6,1.6A1.6,1.6,0,0,1,449.729,575.081Zm47.855-2.68a3.6,3.6,0,1,0,3.6-3.6A3.6,3.6,0,0,0,497.584,572.4Zm10.8-13.325a2.237,2.237,0,1,0-2.237-2.237A2.238,2.238,0,0,0,508.381,559.076Zm-3.987,26.984a12.549,12.549,0,0,0-6.97,2.1,12.094,12.094,0,0,0-3.4-2.962l-1.886-25.422c2.53-1.793,8.833-6.918,9.625-15.008v-.007l0-.019,0,0,1.5-21.545a5.891,5.891,0,0,0-11.492-2.59l-.083.342.244-4.625c.006-.115.008-.217.008-.312a5.891,5.891,0,0,0-5.579-5.882c-.09,0-.2-.008-.312-.008a5.876,5.876,0,0,0-5.144,3.059v-.392a5.891,5.891,0,1,0-11.782,0v5.074l0-.006a5.891,5.891,0,0,0-11.518,1.745,5.812,5.812,0,0,0,.249,1.688l2.578,9.4a11.764,11.764,0,0,0-6.35-2.127,7.918,7.918,0,0,0-5.788,2.367,2,2,0,0,0,.023,2.68s.005,0,2.144,2.333a12.825,12.825,0,0,1,2.459,7.168c.243,2.43-.024,4.857,1.205,7.281a13.527,13.527,0,0,0,3.323,3.528,93.853,93.853,0,0,0,9.708,6.593l-1.494,19.709A14.761,14.761,0,0,0,456.481,588a11.435,11.435,0,0,0-2.085-.191,11.722,11.722,0,0,0-.548,23.431,1.982,1.982,0,0,0,.289.022h28.468a2,2,0,0,0,0-4H454.346c-.052-.006-.1-.009-.155-.01A7.722,7.722,0,1,1,457,592.272a2,2,0,0,0,2.572-1.257,10.74,10.74,0,0,1,19.662-1.711,2,2,0,0,0,3.152.488,8,8,0,0,1,12.759,2.225,2,2,0,0,0,3.2.536,8.6,8.6,0,1,1,6.079,14.712c-.023,0-.055,0-.1,0a2,2,0,0,0-2,2v0a2,2,0,0,0,2,2h.066a12.6,12.6,0,0,0,0-25.205ZM489.9,583.71a11.707,11.707,0,0,0-8.428,1.721,14.718,14.718,0,0,0-11.712-5.789l-.045,0,1.521-20.06a2.006,2.006,0,0,0-.99-1.882c-.006,0-2.856-1.658-5.914-3.709-1.527-1.023-3.1-2.143-4.359-3.17a10.96,10.96,0,0,1-2.331-2.328c-.52-.816-.56-2.963-.739-5.705a16.784,16.784,0,0,0-3.327-9.35l-.11-.134-.545-.592a4.456,4.456,0,0,1,1.158-.148c1.447.006,3.713.621,6.893,3.66a13.086,13.086,0,0,1,2.768,6.988,2,2,0,0,0,2.382,1.9,29.089,29.089,0,0,1,5.457-.664,10.092,10.092,0,0,1,5.6,1.5,17.614,17.614,0,0,1,5.571,6.374,2,2,0,0,0,3.463-2,21.492,21.492,0,0,0-6.91-7.758,14.114,14.114,0,0,0-7.723-2.113,26.9,26.9,0,0,0-4.134.366,16.938,16.938,0,0,0-.885-2.846c-.009-.049-.011-.1-.025-.146l-4.828-17.6-.02-.069a1.89,1.89,0,0,1,3.613-1.113l3.822,12.33v2.068a2,2,0,1,0,4,0V512.792a1.891,1.891,0,1,1,3.781,0v20.849a2,2,0,1,0,4,0v-.234a1.976,1.976,0,0,0,.21-.578l3.018-16.662.029-.251a1.89,1.89,0,0,1,1.887-1.79.843.843,0,0,1,.1,0,1.893,1.893,0,0,1,1.8,1.887,1,1,0,0,1,0,.111l-1.159,21.912a2,2,0,0,0,1.89,2.1c.036,0,.073,0,.109,0a6.48,6.48,0,0,0,2.967-2.481l3.914-16.109a1.891,1.891,0,0,1,1.833-1.446,1.961,1.961,0,0,1,.45.057,1.885,1.885,0,0,1,1.389,2.285l-.051.331-1.507,21.683a15.506,15.506,0,0,1-4.58,9.133,24.6,24.6,0,0,1-2.927,2.606c-.392.3-.714.521-.933.669s-.31.2-.31.2a2,2,0,0,0-.958,1.86Zm2.686,23.555h-2.846a2,2,0,1,0,0,4h2.846a2,2,0,0,0,0-4Z" transform="translate(-442.669 -506.9)" fill="#3b3859"/>
</svg>
