<?xml version="1.0" ?><svg width="64px" height="64px" viewBox="0 0 64 64" xmlns="http://www.w3.org/2000/svg"><defs><style>.cls-1{fill:#546c8c;}.cls-2{fill:#37caec;}.cls-3{fill:#2a93d5;}.cls-4{fill:#dfa57a;}</style></defs><g id="main"><path class="cls-1" d="M37.45,19.83a9,9,0,0,0-10.9,0,1,1,0,1,1-1.1-1.66,11,11,0,0,1,13.1,0,1,1,0,1,1-1.1,1.66Z"/><path class="cls-1" d="M62,20H58a1,1,0,0,1,0-2h4a1,1,0,0,1,0,2Z"/><path class="cls-1" d="M6,20H2a1,1,0,0,1,0-2H6a1,1,0,0,1,0,2Z"/><circle class="cls-2" cx="16" cy="19" r="11"/><circle class="cls-2" cx="48" cy="19" r="11"/><path class="cls-3" d="M54,20a1,1,0,0,1-1-1,5,5,0,0,0-5-5,1,1,0,0,1,0-2,7,7,0,0,1,7,7A1,1,0,0,1,54,20Z"/><path class="cls-3" d="M22,20a1,1,0,0,1-1-1,5,5,0,0,0-5-5,1,1,0,0,1,0-2,7,7,0,0,1,7,7A1,1,0,0,1,22,20Z"/><path class="cls-4" d="M62.53,42.35a1,1,0,0,0-1.11,0c-6.35,4.54-10.89,1.89-15.29-.67C43.42,40.14,41.37,39,38.84,39A7.67,7.67,0,0,0,32,43.24,7.67,7.67,0,0,0,25,39c-2.41,0-4.68,1.32-7.08,2.72-4.4,2.56-9,5.21-15.29.67a1,1,0,0,0-1.11,0,1,1,0,0,0-.46,1C1,43.49,3.28,56,20.66,56A18.34,18.34,0,0,0,28,54.87a7.77,7.77,0,0,0,4-3.54,7.77,7.77,0,0,0,4,3.54h0A18.07,18.07,0,0,0,43.29,56C60.72,56,63,43.49,63,43.36A1,1,0,0,0,62.53,42.35Z"/></g></svg>